<?xml version="1.0" encoding="UTF-8" standalone="no"?>
<svg
   xmlns:dc="http://purl.org/dc/elements/1.1/"
   xmlns:cc="http://creativecommons.org/ns#"
   xmlns:rdf="http://www.w3.org/1999/02/22-rdf-syntax-ns#"
   xmlns:svg="http://www.w3.org/2000/svg"
   xmlns="http://www.w3.org/2000/svg"
   xmlns:sodipodi="http://sodipodi.sourceforge.net/DTD/sodipodi-0.dtd"
   xmlns:inkscape="http://www.inkscape.org/namespaces/inkscape"
   inkscape:version="1.0beta1 (32d4812, 2019-09-19)"
   sodipodi:docname="icon.svg"
   id="svg68"
   xml:space="preserve"
   enable-background="new 0 0 26 26"
   viewBox="0 0 26 26"
   y="0px"
   x="0px"
   version="1.1"><metadata
   id="metadata74">
  <rdf:RDF>
    <cc:Work
       rdf:about="">
      <dc:format>image/svg+xml</dc:format>
      <dc:type
         rdf:resource="http://purl.org/dc/dcmitype/StillImage" />
    </cc:Work>
  </rdf:RDF>
</metadata>
<defs
   id="defs72" />
<sodipodi:namedview
   inkscape:current-layer="svg68"
   inkscape:window-maximized="0"
   inkscape:window-y="23"
   inkscape:window-x="0"
   inkscape:cy="12.849597"
   inkscape:cx="12.79132"
   inkscape:zoom="19.774115"
   showgrid="false"
   id="namedview70"
   inkscape:window-height="967"
   inkscape:window-width="1635"
   inkscape:pageshadow="2"
   inkscape:pageopacity="0"
   guidetolerance="10"
   gridtolerance="10"
   objecttolerance="10"
   borderopacity="1"
   inkscape:document-rotation="0"
   bordercolor="#666666"
   pagecolor="#ffffff" />

<g
   id="guides">
</g>

<g
   id="white">
</g>

<g
   display="none"
   id="_x31_6_16">
</g>

<g
   id="content">
	<path
   id="path64"
   d="M20.5492554,17.5856934l1.6424561,1.1501465C20.3830566,21.314209,17.3885498,23,13.999939,23   c-4.8378296,0-8.8724365-3.4356689-9.7990723-8H1.9991455v-4h2.2017212c0.9266357-4.5643311,4.9612427-8,9.7990723-8   c3.3886108,0,6.3831177,1.685791,8.1917725,4.2641602l-1.6424561,1.1501465C19.1008301,6.3518066,16.7059937,5,13.999939,5   C9.5887451,5,6,8.5888672,6,13s3.5887451,8,7.999939,8C16.7059937,21,19.1008301,19.6481934,20.5492554,17.5856934z"
   fill="#00A3E0" />

</g>

<g
   id="grid">
</g>

<circle
   r="9.0269527"
   cy="12.971503"
   cx="14.084069"
   id="path76"
   style="fill:#ff0000;fill-rule:evenodd" />
<ellipse
   ry="0.32871255"
   rx="0.93556648"
   cy="12.718647"
   cx="14.13464"
   id="path78"
   style="fill:#ff0000;fill-rule:evenodd" />
<circle
   r="7.3075333"
   style="fill:#ffffff;fill-rule:evenodd;stroke-width:0.809524"
   id="path76-3"
   cx="14.058783"
   cy="13.04736" />
<circle
   style="fill:#ff0000;fill-rule:evenodd;stroke-width:0.619047"
   id="path76-5"
   cx="14.159925"
   cy="13.097932"
   r="5.5881138" />
<circle
   style="fill:#ffffff;fill-rule:evenodd;stroke-width:0.436975"
   id="path76-7"
   cx="14.08407"
   cy="13.072645"
   r="3.9445508" />
<circle
   r="2.2757022"
   cy="13.09793"
   cx="14.109355"
   id="path76-7-0"
   style="fill:#ff0000;fill-rule:evenodd;stroke-width:0.252101" />
</svg>
